{
   "accessors" : [
      {
         "bufferView" : 0,
         "byteOffset" : 0,
         "componentType" : 5123,
         "count" : 54,
         "max" : [ 35 ],
         "min" : [ 0 ],
         "name" : "buffer-0-group-0-mesh-0-indices",
         "type" : "SCALAR"
      },
      {
         "bufferView" : 2,
         "byteOffset" : 0,
         "componentType" : 5126,
         "count" : 36,
         "max" : [ 0.07349999994039536, 0, 0.07349999994039536 ],
         "min" : [ -0.07349999994039536, -0.07649999856948853, -0.07349999994039536 ],
         "name" : "buffer-0-group-0-mesh-0-position",
         "type" : "VEC3"
      },
      {
         "bufferView" : 2,
         "byteOffset" : 432,
         "componentType" : 5126,
         "count" : 36,
         "max" : [ 0, 0, 0 ],
         "min" : [ 0, -1, 0 ],
         "name" : "buffer-0-group-0-mesh-0-normal",
         "type" : "VEC3"
      },
      {
         "bufferView" : 0,
         "byteOffset" : 108,
         "componentType" : 5123,
         "count" : 54,
         "max" : [ 35 ],
         "min" : [ 0 ],
         "name" : "buffer-0-group-1-mesh-0-indices",
         "type" : "SCALAR"
      },
      {
         "bufferView" : 2,
         "byteOffset" : 864,
         "componentType" : 5126,
         "count" : 36,
         "max" : [ 0.07349999994039536, 0.07349999994039536, 0.07649999856948853 ],
         "min" : [ -0.07349999994039536, -0.07349999994039536, 0 ],
         "name" : "buffer-0-group-1-mesh-0-position",
         "type" : "VEC3"
      },
      {
         "bufferView" : 2,
         "byteOffset" : 1296,
         "componentType" : 5126,
         "count" : 36,
         "max" : [ 0, 0, 1 ],
         "min" : [ 0, 0, 0 ],
         "name" : "buffer-0-group-1-mesh-0-normal",
         "type" : "VEC3"
      },
      {
         "bufferView" : 0,
         "byteOffset" : 216,
         "componentType" : 5123,
         "count" : 54,
         "max" : [ 53 ],
         "min" : [ 0 ],
         "name" : "buffer-0-group-2-mesh-0-indices",
         "type" : "SCALAR"
      },
      {
         "bufferView" : 2,
         "byteOffset" : 1728,
         "componentType" : 5126,
         "count" : 54,
         "max" : [ 0.07649999856948853, 0.07349999994039536, 0.07349999994039536 ],
         "min" : [ 0, -0.07349999994039536, -0.07349999994039536 ],
         "name" : "buffer-0-group-2-mesh-0-position",
         "type" : "VEC3"
      },
      {
         "bufferView" : 2,
         "byteOffset" : 2376,
         "componentType" : 5126,
         "count" : 54,
         "max" : [ 1, 0, 0 ],
         "min" : [ 0, 0, 0 ],
         "name" : "buffer-0-group-2-mesh-0-normal",
         "type" : "VEC3"
      },
      {
         "bufferView" : 0,
         "byteOffset" : 324,
         "componentType" : 5123,
         "count" : 54,
         "max" : [ 53 ],
         "min" : [ 0 ],
         "name" : "buffer-0-group-3-mesh-0-indices",
         "type" : "SCALAR"
      },
      {
         "bufferView" : 2,
         "byteOffset" : 3024,
         "componentType" : 5126,
         "count" : 54,
         "max" : [ 0.07349999994039536, 0.07349999994039536, 0 ],
         "min" : [ -0.07349999994039536, -0.07349999994039536, -0.07649999856948853 ],
         "name" : "buffer-0-group-3-mesh-0-position",
         "type" : "VEC3"
      },
      {
         "bufferView" : 2,
         "byteOffset" : 3672,
         "componentType" : 5126,
         "count" : 54,
         "max" : [ 0, 0, 0 ],
         "min" : [ 0, 0, -1 ],
         "name" : "buffer-0-group-3-mesh-0-normal",
         "type" : "VEC3"
      },
      {
         "bufferView" : 0,
         "byteOffset" : 432,
         "componentType" : 5123,
         "count" : 54,
         "max" : [ 35 ],
         "min" : [ 0 ],
         "name" : "buffer-0-group-4-mesh-0-indices",
         "type" : "SCALAR"
      },
      {
         "bufferView" : 2,
         "byteOffset" : 4320,
         "componentType" : 5126,
         "count" : 36,
         "max" : [ 0, 0.07349999994039536, 0.07349999994039536 ],
         "min" : [ -0.07649999856948853, -0.07349999994039536, -0.07349999994039536 ],
         "name" : "buffer-0-group-4-mesh-0-position",
         "type" : "VEC3"
      },
      {
         "bufferView" : 2,
         "byteOffset" : 4752,
         "componentType" : 5126,
         "count" : 36,
         "max" : [ 0, 0, 0 ],
         "min" : [ -1, 0, 0 ],
         "name" : "buffer-0-group-4-mesh-0-normal",
         "type" : "VEC3"
      },
      {
         "bufferView" : 0,
         "byteOffset" : 540,
         "componentType" : 5123,
         "count" : 54,
         "max" : [ 53 ],
         "min" : [ 0 ],
         "name" : "buffer-0-group-5-mesh-0-indices",
         "type" : "SCALAR"
      },
      {
         "bufferView" : 2,
         "byteOffset" : 5184,
         "componentType" : 5126,
         "count" : 54,
         "max" : [ 0.07349999994039536, 0.07649999856948853, 0.07349999994039536 ],
         "min" : [ -0.07349999994039536, 0, -0.07349999994039536 ],
         "name" : "buffer-0-group-5-mesh-0-position",
         "type" : "VEC3"
      },
      {
         "bufferView" : 2,
         "byteOffset" : 5832,
         "componentType" : 5126,
         "count" : 54,
         "max" : [ 0, 1, 0 ],
         "min" : [ 0, 0, 0 ],
         "name" : "buffer-0-group-5-mesh-0-normal",
         "type" : "VEC3"
      },
      {
         "bufferView" : 0,
         "byteOffset" : 648,
         "componentType" : 5123,
         "count" : 2592,
         "max" : [ 1745 ],
         "min" : [ 0 ],
         "name" : "buffer-0-group-6-mesh-0-indices",
         "type" : "SCALAR"
      },
      {
         "bufferView" : 2,
         "byteOffset" : 6480,
         "componentType" : 5126,
         "count" : 1746,
         "max" : [ 0.07649999856948853, 0.07649999856948853, 0.07649999856948853 ],
         "min" : [ -0.07649999856948853, -0.07649999856948853, -0.07649999856948853 ],
         "name" : "buffer-0-group-6-mesh-0-position",
         "type" : "VEC3"
      },
      {
         "bufferView" : 2,
         "byteOffset" : 27432,
         "componentType" : 5126,
         "count" : 1746,
         "max" : [ 0.894428014755249, 0.894428014755249, 0.894428014755249 ],
         "min" : [ -0.894428014755249, -0.894428014755249, -0.894428014755249 ],
         "name" : "buffer-0-group-6-mesh-0-normal",
         "type" : "VEC3"
      }
   ],
   "asset" : {
      "extras" : {
         "GOOGLE_processor_version" : 293297437
      },
      "generator" : "Obj2GltfConverter",
      "version" : "2.0"
   },
   "bufferViews" : [
      {
         "buffer" : 0,
         "byteLength" : 5832,
         "byteOffset" : 0,
         "byteStride" : 0,
         "name" : "buffer-0-bufferview-ushort",
         "target" : 34963
      },
      {
         "buffer" : 0,
         "byteLength" : 1,
         "byteOffset" : 0,
         "name" : "buffer-0-bufferview-vec2"
      },
      {
         "buffer" : 0,
         "byteLength" : 48384,
         "byteOffset" : 5832,
         "byteStride" : 12,
         "name" : "buffer-0-bufferview-vec3",
         "target" : 34962
      },
      {
         "buffer" : 0,
         "byteLength" : 1,
         "byteOffset" : 0,
         "name" : "buffer-0-bufferview-vec4"
      }
   ],
   "buffers" : [
      {
         "byteLength" : 54216,
         "name" : "buffer-0",
         "uri" : "rubiks-cube.bin"
      }
   ],
   "cameras" : [
      {
         "perspective" : {
            "yfov" : 0.7853981633974483,
            "znear" : 0.1000000014901161
         },
         "type" : "perspective"
      }
   ],
   "extensions" : {
      "KHR_lights_punctual" : {
         "lights" : [
            {
               "color" : [ 1, 0.9333333333333333, 0.8666666666666667 ],
               "intensity" : 0.25,
               "name" : "headLight",
               "type" : "directional"
            },
            {
               "color" : [ 1, 0.9333333333333333, 0.8666666666666667 ],
               "intensity" : 0.324999988079071,
               "name" : "keyLight",
               "type" : "directional"
            }
         ]
      }
   },
   "extensionsUsed" : [ "GOOGLE_backgrounds", "GOOGLE_camera_settings", "KHR_lights_punctual" ],
   "extras" : {
      "GOOGLE_initial_camera_motion" : {
         "motionPath" : "FULL_ROTATION"
      },
      "GOOGLE_lighting_rig" : {
         "disableShadows" : false
      }
   },
   "materials" : [
      {
         "alphaMode" : "OPAQUE",
         "doubleSided" : true,
         "name" : "faces_green",
         "pbrMetallicRoughness" : {
            "baseColorFactor" : [ 0, 0.360784, 0.08235290000000001, 1 ],
            "metallicFactor" : 0,
            "roughnessFactor" : 0.2812793845650566
         }
      },
      {
         "alphaMode" : "OPAQUE",
         "doubleSided" : true,
         "name" : "faces_yellow",
         "pbrMetallicRoughness" : {
            "baseColorFactor" : [ 1, 0.941177, 0.196078, 1 ],
            "metallicFactor" : 0,
            "roughnessFactor" : 0.2812793845650566
         }
      },
      {
         "alphaMode" : "OPAQUE",
         "doubleSided" : true,
         "name" : "faces_orange",
         "pbrMetallicRoughness" : {
            "baseColorFactor" : [ 0.74902, 0.5215689999999999, 0.313726, 1 ],
            "metallicFactor" : 0,
            "roughnessFactor" : 0.2812793845650566
         }
      },
      {
         "alphaMode" : "OPAQUE",
         "doubleSided" : true,
         "name" : "faces_white",
         "pbrMetallicRoughness" : {
            "baseColorFactor" : [ 0.941177, 0.941177, 0.941177, 1 ],
            "metallicFactor" : 0,
            "roughnessFactor" : 0.2812793845650566
         }
      },
      {
         "alphaMode" : "OPAQUE",
         "doubleSided" : true,
         "name" : "faces_red",
         "pbrMetallicRoughness" : {
            "baseColorFactor" : [ 0.705882, 0, 0, 1 ],
            "metallicFactor" : 0,
            "roughnessFactor" : 0.2812793845650566
         }
      },
      {
         "alphaMode" : "OPAQUE",
         "doubleSided" : true,
         "name" : "faces_cyan",
         "pbrMetallicRoughness" : {
            "baseColorFactor" : [ 0.243137, 0.670688, 0.886275, 1 ],
            "metallicFactor" : 0,
            "roughnessFactor" : 0.2812793845650566
         }
      },
      {
         "alphaMode" : "OPAQUE",
         "doubleSided" : true,
         "name" : "base",
         "pbrMetallicRoughness" : {
            "baseColorFactor" : [ 0.0392157, 0.0392157, 0.0392157, 1 ],
            "metallicFactor" : 0,
            "roughnessFactor" : 0.5388542224204536
         }
      }
   ],
   "meshes" : [
      {
         "name" : "buffer-0-mesh-0",
         "primitives" : [
            {
               "attributes" : {
                  "NORMAL" : 2,
                  "POSITION" : 1
               },
               "indices" : 0,
               "material" : 0,
               "mode" : 4
            },
            {
               "attributes" : {
                  "NORMAL" : 5,
                  "POSITION" : 4
               },
               "indices" : 3,
               "material" : 1,
               "mode" : 4
            },
            {
               "attributes" : {
                  "NORMAL" : 8,
                  "POSITION" : 7
               },
               "indices" : 6,
               "material" : 2,
               "mode" : 4
            },
            {
               "attributes" : {
                  "NORMAL" : 11,
                  "POSITION" : 10
               },
               "indices" : 9,
               "material" : 3,
               "mode" : 4
            },
            {
               "attributes" : {
                  "NORMAL" : 14,
                  "POSITION" : 13
               },
               "indices" : 12,
               "material" : 4,
               "mode" : 4
            },
            {
               "attributes" : {
                  "NORMAL" : 17,
                  "POSITION" : 16
               },
               "indices" : 15,
               "material" : 5,
               "mode" : 4
            },
            {
               "attributes" : {
                  "NORMAL" : 20,
                  "POSITION" : 19
               },
               "indices" : 18,
               "material" : 6,
               "mode" : 4
            }
         ]
      }
   ],
   "nodes" : [
      {
         "mesh" : 0,
         "name" : "node-0"
      },
      {
         "children" : [ 2 ]
      },
      {
         "children" : [ 3 ],
         "extras" : {
            "isTransformNode" : 1
         },
         "translation" : [ -0.0003824999928474431, -0.0003824999928474431, 0.0003824999928474408 ]
      },
      {
         "children" : [ 0 ],
         "translation" : [ 0.0003824999928474431, 0.0003824999928474431, -0.0003824999928474408 ]
      },
      {
         "camera" : 0,
         "children" : [ 5 ],
         "rotation" : [
            -0.1999325197758171,
            -0.3317746257235587,
            -0.07217122474527797,
            0.9190995047223405
         ],
         "translation" : [ -0.2864621180534639, 0.2041562825297905, 0.3450046840143294 ]
      },
      {
         "extensions" : {
            "KHR_lights_punctual" : {
               "light" : 0
            }
         },
         "extras" : {
            "isHeadLight" : 1
         },
         "name" : "headLightNode",
         "translation" : [ -0.1481452425864767, 0.07407262129323833, 0.07407262129323833 ]
      },
      {
         "extensions" : {
            "KHR_lights_punctual" : {
               "light" : 1
            }
         },
         "extras" : {
            "isKeyLight" : 1
         },
         "name" : "keyLightNode",
         "rotation" : [ -0.7505326882858236, -0.3752663441429118, 0, 0.5439447166468927 ],
         "scale" : [ 0, 0, 0.1496266950123414 ],
         "translation" : [ -0.1467799688495536, 0.3027652947653741, -0.1515031830908601 ]
      }
   ],
   "scene" : 0,
   "scenes" : [
      {
         "extensions" : {
            "GOOGLE_backgrounds" : {
               "color" : [ 0.1568627450980392, 0.207843137254902, 0.5764705882352941 ]
            },
            "GOOGLE_camera_settings" : {}
         },
         "extras" : {
            "GOOGLE_camera_index" : {
               "cameraIndex" : 0,
               "nodeIndex" : 4
            },
            "GOOGLE_geometry_data" : {
               "stats" : {
                  "centroid" : [ 0.002846726162787822, 0.003511904740691303, -0.001876488078518637 ],
                  "radius" : 0.1481452425864767,
                  "stdev" : 0.1019761161848177
               },
               "visualCenterPoint" : [ -0.0003824999928474431, -0.0003824999928474431, 0.0003824999928474408 ]
            },
            "GOOGLE_hemi_light" : {
               "groundColor" : [ 0.1568627450980392, 0.207843137254902, 0.5764705882352941 ]
            }
         },
         "name" : "scene-0",
         "nodes" : [ 1, 4, 6 ]
      }
   ]
}
